<svg width="250" height="17" viewBox="0 0 250 17" fill="none" xmlns="http://www.w3.org/2000/svg">
<path d="M236.652 2.39996C248.269 3.89996 246.372 2.79997 246.135 3.49997C246.965 3.79997 247.794 3.99996 249.098 4.39996C248.15 4.99996 247.557 5.29996 246.846 5.69996C246.965 5.79996 247.202 5.99996 247.32 6.19996C247.202 6.29996 246.965 6.49997 246.846 6.49997C243.29 6.29997 239.734 7.29997 236.178 7.09997C232.503 6.89997 228.829 6.79997 225.154 7.09997C222.19 7.39997 219.346 7.49997 216.382 7.59997C215.434 7.59997 214.723 6.99997 213.656 7.49997C212.826 7.89997 211.522 7.59997 210.455 7.59997C209.27 7.59997 208.085 7.59997 206.899 7.59997C205.832 7.59997 204.765 7.59997 203.699 7.59997C202.632 7.59997 201.565 7.59997 200.498 7.59997C200.38 7.59997 200.38 7.69997 200.024 7.99997C201.091 8.09997 201.921 8.19997 202.75 8.29997C202.75 8.39997 202.75 8.49997 202.75 8.59997C201.684 8.59997 200.498 8.69996 199.431 8.69996C198.246 8.69996 197.061 8.69996 195.875 8.69996C195.638 8.69996 195.401 8.69997 195.282 8.59997C194.097 7.19997 192.793 7.39997 191.134 8.09997C190.541 8.39997 189.593 8.09997 188.881 8.09997C178.806 8.09997 168.612 8.09997 158.536 8.09997C157.469 8.09997 156.165 7.59997 155.217 8.59997C155.217 8.59997 154.98 8.59997 154.861 8.59997C153.913 7.69997 152.965 8.99997 152.135 8.59997C151.187 7.99997 150.594 8.09997 149.646 8.59997C149.409 8.79997 148.697 8.49997 148.223 8.29997C147.631 7.99997 147.631 7.69996 148.223 7.39996C148.105 7.29996 147.986 7.09997 147.868 7.09997C147.631 7.09997 147.393 7.09997 147.275 7.09997C147.038 7.39997 147.038 7.79997 146.801 7.99997C146.445 8.29997 145.971 8.59997 145.497 8.59997C144.786 8.59997 143.837 8.09997 143.245 8.29997C142.415 8.69997 141.822 8.59997 140.992 8.29997C140.4 8.09997 139.57 8.59997 138.74 8.59997C135.777 8.59997 132.695 8.59997 129.731 8.59997C129.376 8.19997 129.139 7.89997 128.902 7.49997C128.546 7.79997 128.072 8.09997 127.361 8.59997C126.057 8.89997 123.923 7.89996 122.619 9.69996C122.264 9.29996 121.908 8.99996 121.552 8.69996C118.945 9.29996 116.574 9.39996 114.085 8.69996C111.477 9.69996 108.869 8.79996 106.261 9.19996C106.261 8.69996 106.498 8.09997 106.38 8.09997C105.431 7.79997 105.55 8.59997 105.313 9.09997C104.246 9.09997 103.061 9.09997 101.875 9.09997C101.757 9.49997 101.52 9.79997 101.401 10.1C101.282 9.99997 101.045 9.99996 100.927 9.89996C100.334 9.09996 99.2674 8.79997 98.4376 9.09997C96.541 9.89997 94.5259 9.49997 92.5107 9.59997C90.8512 9.69997 89.0732 9.59997 87.4136 9.99997C88.4805 10.1 89.4288 10.2 90.4956 10.3C88.1249 10.5 85.6356 11.6 83.8575 9.79997C82.6721 9.99997 81.6053 10.2 80.657 10.2C77.575 10.2 74.4931 10.2 71.4111 10.2C71.174 10.7 71.0555 11 70.937 11.5C70.4628 10.8 69.9887 10.3 69.5145 9.79997C69.2775 10.5 68.8033 11.3 67.855 10.8C66.9067 10.2 66.314 10.6 65.3657 10.8C63.7062 11.1 61.9281 10.9 60.2686 11.2C61.0984 11.3 61.9281 11.4 62.7579 11.5C62.6394 11.7 62.5208 11.9 62.4023 11.9C60.0315 11.9 57.6608 12 55.2901 11.9C53.512 11.8 51.8525 11.2 50.0744 11.4C49.8373 11.4 49.4817 11.5 49.2447 11.8C50.0744 11.9 51.0227 12 51.8525 12C49.1261 12.2 46.5183 12.9 43.7919 12C42.6066 11.6 41.0656 11.9 39.6431 12.2C40.2358 12.3 40.8285 12.4 41.4212 12.6C41.3027 12.7 41.1841 13 41.1841 13C40.1173 13 39.0505 13 37.9836 13C37.3909 11.8 36.5612 13.6 35.6129 12.8C35.0202 12.3 33.8348 13.5 32.6495 12.6C32.0568 12.1 30.3972 12.5 29.2119 12.9C30.0416 13 30.8714 13.1 31.7012 13.2C31.4641 13.4 31.3455 13.6 31.227 13.6C29.5675 13.6 28.0265 13.6 26.367 13.6C23.1665 13.7 20.0845 13.7 17.0025 14.2C15.343 14.5 13.6835 14.5 12.1425 14.7C10.7201 14.8 9.41616 15.3 8.82347 16.8C8.23078 16.8 7.04541 17 6.92687 16.8C6.45273 15.8 5.03028 15.7 4.67467 14.9C4.31906 14.1 3.84491 13.9 3.13368 13.5C1.5927 12.8 1.23709 11.4 2.06685 9.99997C1.5927 9.59997 1.23709 9.19996 0.762939 8.89996C0.762939 8.69996 0.762939 8.49996 0.881477 8.39996C2.06685 7.19996 3.4893 6.69997 5.38589 6.49997C8.5864 6.19997 11.6684 5.39997 14.8689 5.49997C16.7655 4.49997 18.7806 5.09996 20.7957 4.89996C22.3367 4.79996 23.8777 4.49996 25.4187 4.39996C26.9597 4.29996 28.6192 4.69997 29.9231 4.29997C31.8197 3.69997 33.7163 3.79996 35.4943 3.89996C37.8651 4.09996 39.9988 3.19997 42.3695 3.29997C44.7402 3.29997 47.2295 3.69997 49.4817 3.19997C53.8676 2.39997 58.2535 3.19997 62.5208 2.69997C67.855 2.09997 73.1892 2.69997 78.4048 2.09997C85.3985 1.29998 92.5107 1.89997 99.5044 1.69997C100.334 1.69997 101.282 1.69997 102.112 1.69997C102.823 1.69997 103.653 1.89997 104.127 1.19997C104.483 2.09997 105.313 1.09997 106.024 1.49997C106.38 1.79997 107.446 1.19997 108.276 1.19997C109.106 1.09997 110.054 1.19997 110.884 1.19997C111.595 1.19997 112.425 1.19997 113.136 1.19997C113.966 1.19997 114.914 1.19997 115.744 1.19997C116.574 1.19997 117.522 1.19997 118.352 1.19997C119.063 1.19997 119.893 1.19997 120.604 1.19997C121.434 1.19997 122.382 1.09997 123.212 1.19997C124.279 1.29997 125.227 0.999975 126.294 1.59998C126.768 1.89997 127.953 1.19997 128.902 1.19997C131.628 1.09997 134.236 1.19997 136.962 1.19997C137.91 1.19997 139.096 1.59997 139.926 0.699966C140.518 0.0999664 140.874 1.69997 141.704 0.799972C141.941 0.499972 143.363 0.499966 143.482 0.699966C144.311 1.79997 145.26 0.0999725 145.852 0.799972C146.682 1.79997 147.275 0.599966 147.986 0.699966C148.342 0.699966 148.816 0.799963 149.172 0.899963C149.883 0.999963 150.95 1.39997 151.187 1.19997C152.016 0.299966 153.083 1.19997 154.032 0.799972C154.98 0.399972 156.402 0.699966 157.469 0.699966C178.569 0.699966 199.668 0.699966 220.768 0.699966C223.613 0.699966 226.458 1.29997 229.184 0.199966C230.607 1.19997 232.029 0.0999756 233.451 0.0999756C237.956 0.299976 242.46 0.199966 247.32 0.199966C247.202 0.599966 247.083 1.19997 246.846 1.19997C244.594 1.39997 242.342 1.89997 239.971 1.79997C235.23 1.69997 230.488 1.79997 225.747 1.79997C225.628 1.79997 225.391 1.99997 225.272 2.09997C225.509 2.19997 225.747 2.29996 225.865 2.39996C226.458 2.49996 226.932 3.09996 227.643 2.39996C227.762 2.19996 228.473 2.39996 228.947 2.39996C235.23 2.19996 241.512 2.19996 236.652 2.39996C225.391 2.49996 225.391 2.39997 225.391 2.29997C224.443 2.09997 223.376 1.79998 222.428 1.59998C221.835 1.49998 218.516 1.59998 217.923 1.59998C217.449 1.59998 216.856 1.39998 216.738 1.59998C215.908 2.49997 214.723 2.09997 213.774 2.09997C198.483 2.09997 183.192 2.09997 167.9 2.09997C166.952 2.09997 166.004 2.49997 165.174 1.69997C165.056 1.59997 164.463 1.49998 164.344 1.59998C163.396 2.49997 162.092 1.99997 161.025 2.09997C158.773 2.29997 156.402 1.79997 154.15 2.59997C153.557 2.79997 152.491 2.49997 151.779 2.29997C150.238 1.99997 148.697 1.79996 147.156 2.39996C146.682 2.59996 145.971 1.79997 145.497 2.59997C144.667 1.69998 143.245 1.89997 142.533 2.19997C141.348 2.69997 140.518 1.69998 139.451 2.09997C139.214 2.19997 138.977 2.09997 138.859 2.29997C138.385 2.79997 137.91 2.69996 137.199 2.39996C136.488 2.09996 135.421 1.99997 134.71 2.19997C133.762 2.49997 132.695 2.69997 131.984 2.59997C130.917 2.39997 129.968 2.69997 128.902 2.69997C120.96 2.89997 113.136 2.39997 105.194 3.19997C99.2674 3.79997 93.3405 2.99997 87.2951 3.69997C81.8424 4.39996 76.2711 3.49997 70.6999 4.29997C66.314 4.89997 61.8096 4.09996 57.4237 4.89996C55.4086 5.29996 53.1564 4.79997 51.0227 4.99997C49.0076 5.09997 47.111 4.79996 45.0959 5.39996C43.1993 5.99996 40.8285 5.49997 38.6948 5.59997C38.3392 5.59997 37.9836 5.69997 37.7466 5.79997C38.2207 6.19997 38.5763 6.19996 38.9319 6.19996C42.7251 6.09996 46.5183 6.19996 50.3115 5.69996C54.9344 5.09996 59.5574 5.89996 64.2989 5.19996C68.6848 4.49996 73.1892 5.69997 77.5751 4.59997C78.1677 4.39997 78.7604 5.59997 79.3531 4.59997C80.0643 5.49997 80.657 4.49997 81.3682 4.49997C86.7024 4.39997 92.0366 4.89997 97.2522 3.99997C97.9634 3.89997 99.0303 3.79997 99.3859 4.09997C100.334 4.79997 100.808 3.69996 101.52 3.89996C102.231 4.09996 103.061 3.89996 103.772 3.89996C108.039 3.89996 112.425 3.89996 116.692 3.89996C117.759 3.89996 119.063 4.29996 120.011 3.39996C120.13 3.29996 120.723 3.59997 121.078 3.69997C121.552 3.79997 122.382 3.99996 122.501 3.89996C123.093 3.19996 123.449 3.79996 123.923 3.89996C124.397 3.99996 124.99 3.39996 125.583 3.39996C126.531 3.39996 127.479 2.99996 128.309 3.89996C128.902 3.29996 129.85 3.39996 130.561 3.39996C131.391 3.39996 132.339 3.19996 132.932 3.89996C133.525 3.09996 134.473 3.39996 135.303 3.39996C140.637 3.39996 146.09 3.49996 151.424 3.39996C156.758 3.29996 162.092 3.99996 167.308 2.89996C167.9 3.39996 168.849 3.09997 169.56 3.19997C170.508 3.29997 171.457 2.89996 172.405 2.89996C173.472 2.89996 174.776 2.59996 175.724 3.39996C176.791 2.39996 178.213 2.89996 179.399 2.89996C193.623 2.89996 207.847 2.89996 222.072 2.89996C223.257 2.69996 224.324 2.69996 236.652 2.39996Z" fill="black"/>
</svg>
